<svg width="154" height="45" viewBox="0 0 154 45" fill="none" xmlns="http://www.w3.org/2000/svg">
<rect x="0.5" y="0.5" width="153" height="44" rx="22" stroke="white"/>
<path d="M32.305 17.5H33.565V26.83H39.055V28H32.305V17.5ZM41.5946 17.5H47.9546V18.67H42.8546V22.15H47.8646V23.32H42.8546V26.83H48.0446V28H41.5946V17.5ZM56.2091 25.39H51.7091L50.9441 28H49.5941L52.7741 17.5H55.1441L58.3241 28H56.9741L56.2091 25.39ZM53.8691 18.04L52.0541 24.22H55.8641L54.0491 18.04H53.8691ZM66.4287 28H65.1687V24.49C65.1687 24.23 65.1087 24.03 64.9887 23.89C64.8687 23.75 64.6587 23.68 64.3587 23.68H61.0887V28H59.8287V17.5H63.5787C64.1187 17.5 64.5887 17.58 64.9887 17.74C65.3887 17.89 65.7187 18.095 65.9787 18.355C66.2487 18.615 66.4487 18.92 66.5787 19.27C66.7187 19.61 66.7887 19.97 66.7887 20.35V20.8C66.7887 21.19 66.6787 21.58 66.4587 21.97C66.2487 22.36 65.9187 22.66 65.4687 22.87V23.05C65.7687 23.1 66.0037 23.22 66.1737 23.41C66.3437 23.6 66.4287 23.87 66.4287 24.22V28ZM61.0887 22.51H63.4287C64.1387 22.51 64.6637 22.36 65.0037 22.06C65.3537 21.75 65.5287 21.3 65.5287 20.71V20.44C65.5287 19.91 65.3537 19.485 65.0037 19.165C64.6637 18.835 64.1387 18.67 63.4287 18.67H61.0887V22.51ZM74.3833 27.46H74.5633V17.5H75.8233V28H73.3033L70.2733 18.04H70.0933V28H68.8333V17.5H71.3533L74.3833 27.46ZM86.7974 17.5H89.1974L90.6074 27.46H90.7874L92.1974 17.5H94.5974V28H93.4274V18.04H93.2474L91.8374 28H89.5574L88.1474 18.04H87.9674V28H86.7974V17.5ZM96.192 21.58C96.192 20.22 96.517 19.165 97.167 18.415C97.817 17.665 98.722 17.29 99.882 17.29C101.042 17.29 101.947 17.665 102.597 18.415C103.247 19.165 103.572 20.22 103.572 21.58V23.92C103.572 25.32 103.247 26.385 102.597 27.115C101.947 27.845 101.042 28.21 99.882 28.21C98.722 28.21 97.817 27.845 97.167 27.115C96.517 26.385 96.192 25.32 96.192 23.92V21.58ZM99.882 27.04C100.692 27.04 101.297 26.765 101.697 26.215C102.107 25.655 102.312 24.86 102.312 23.83V21.67C102.312 20.71 102.107 19.935 101.697 19.345C101.297 18.755 100.692 18.46 99.882 18.46C99.072 18.46 98.462 18.755 98.052 19.345C97.652 19.935 97.452 20.71 97.452 21.67V23.83C97.452 24.86 97.652 25.655 98.052 26.215C98.462 26.765 99.072 27.04 99.882 27.04ZM112.352 28H111.092V24.49C111.092 24.23 111.032 24.03 110.912 23.89C110.792 23.75 110.582 23.68 110.282 23.68H107.012V28H105.752V17.5H109.502C110.042 17.5 110.512 17.58 110.912 17.74C111.312 17.89 111.642 18.095 111.902 18.355C112.172 18.615 112.372 18.92 112.502 19.27C112.642 19.61 112.712 19.97 112.712 20.35V20.8C112.712 21.19 112.602 21.58 112.382 21.97C112.172 22.36 111.842 22.66 111.392 22.87V23.05C111.692 23.1 111.927 23.22 112.097 23.41C112.267 23.6 112.352 23.87 112.352 24.22V28ZM107.012 22.51H109.352C110.062 22.51 110.587 22.36 110.927 22.06C111.277 21.75 111.452 21.3 111.452 20.71V20.44C111.452 19.91 111.277 19.485 110.927 19.165C110.587 18.835 110.062 18.67 109.352 18.67H107.012V22.51ZM115.071 17.5H121.431V18.67H116.331V22.15H121.341V23.32H116.331V26.83H121.521V28H115.071V17.5Z" fill="white"/>
</svg>
